<?xml version="1.0" encoding="utf-8"?>
<!-- Generator: Adobe Adobe Illustrator 24.2.0, SVG Export Plug-In . SVG Version: 6.00 Build 0)  -->
<svg version="1.1" xmlns="http://www.w3.org/2000/svg" xmlns:xlink="http://www.w3.org/1999/xlink" x="0px" y="0px"
	 width="1072.45px" height="1018.03px" viewBox="0 0 1072.45 1018.03" style="enable-background:new 0 0 1072.45 1018.03;"
	 xml:space="preserve">
<style type="text/css">
	.st0{fill-rule:evenodd;clip-rule:evenodd;fill:#10112B;}
	.st1{fill:none;stroke:#F1BE1C;stroke-width:5;stroke-miterlimit:10;}
	.st2{fill:#F1BE1C;}
	.st3{font-family:'RatioModern-Medium';}
	.st4{font-size:315.7297px;}
	.st5{font-size:295.5px;}
	.st6{fill:#10112B;stroke:#10112B;stroke-miterlimit:10;}
	.st7{fill:#10112B;stroke:#10112B;stroke-width:3;stroke-miterlimit:10;}
	.st8{font-family:'RatioModern';}
	.st9{font-size:62.6014px;}
	.st10{letter-spacing:-2;}
	.st11{font-size:37.8514px;}
	.st12{letter-spacing:-1;}
	.st13{fill:none;}
	.st14{fill:none;stroke:#000000;stroke-miterlimit:10;}
	.st15{fill-rule:evenodd;clip-rule:evenodd;fill:none;}
	.st16{fill:#F1BE1C;stroke:#F1BE1C;stroke-width:5;stroke-miterlimit:10;}
</style>
<g id="XMLID_1_">
</g>
<g id="XMLID_2_">
	<rect y="0.5" class="st0" width="1072.45" height="1017.53"/>
	<circle class="st1" cx="535.28" cy="408.92" r="288.26"/>
	<text transform="matrix(1 0 0 1 364.1744 419.8167)" class="st2 st3 st4">3</text>
	<text transform="matrix(1 0 0 1 486.7747 589.0688)" class="st2 st3 st5">H</text>
	<g>
		<g>
			<line class="st6" x1="304.62" y1="645.78" x2="808.38" y2="142.02"/>
			<polygon class="st6" points="322.86,685.26 247.23,637.5 784.8,110.43 847.76,162.77 			"/>
		</g>
		<line class="st7" x1="304.62" y1="645.78" x2="808.38" y2="142.02"/>
	</g>
	<text transform="matrix(1 0 0 1 160.0895 806.5063)" class="st2 st8 st9 st10">HORSE - HOUND - HUMAN</text>
	<text transform="matrix(1 0 0 1 385.0887 880.4541)" class="st2 st8 st11 st12">PHYSIOTHERAPY </text>
	<rect x="809.4" y="583.2" class="st13" width="7.66" height="13.93"/>
	<rect x="597.64" y="218.2" class="st13" width="3.48" height="1.39"/>
	<rect x="656.16" y="87.95" class="st13" width="6.97" height="5.57"/>
	<line class="st14" x1="382.41" y1="90.73" x2="382.41" y2="93.52"/>
	<rect x="364.17" y="947.92" class="st13" width="13.48" height="70.12"/>
	<rect x="201.28" y="741.3" class="st13" width="709.76" height="56"/>
	<rect x="953.33" y="553.39" class="st15" width="7.12" height="6.23"/>
	<rect x="810.91" y="106.54" class="st15" width="2.67" height="6.23"/>
	<rect x="-10.68" y="218.7" class="st15" width="21.36" height="12.46"/>
	<line class="st16" x1="272.21" y1="678.19" x2="822.72" y2="127.69"/>
</g>
</svg>
