<svg width="420" height="267" viewBox="0 0 420 267" fill="none" xmlns="http://www.w3.org/2000/svg">
<path d="M0 53.39C0.115 53.506 0.46 53.735 0.958 54.118C1.609 54.578 2.529 55.383 3.756 56.073C4.906 56.801 6.286 57.567 7.819 58.257C7.972 59.368 8.126 60.48 8.279 61.553C8.164 61.476 8.087 61.361 8.011 61.323C8.088 61.476 8.165 61.744 8.394 62.128C8.701 64.197 9.045 66.229 9.429 68.261C9.352 68.338 9.314 68.414 9.237 68.491C8.126 69.756 7.359 70.676 7.206 70.906C7.436 70.829 8.394 70.561 9.774 70.139C9.927 70.1 10.081 70.062 10.234 70.024C11.997 69.372 14.565 69.027 16.941 68.567C19.28 68.299 21.54 68.222 23.342 68.261C18.206 71.48 13.607 74.393 13.607 74.393C13.607 74.393 19.165 73.627 25.297 72.822C23.496 73.55 21.733 74.049 20.199 74.24C18.743 74.508 17.554 74.508 16.711 74.432C15.83 74.393 15.331 74.355 15.331 74.355C15.331 74.355 15.791 74.547 16.596 74.891C17.362 75.313 18.551 75.773 20.083 76.08C22.536 76.655 25.87 76.808 29.32 76.425C25.833 78.801 22.996 80.756 22.996 80.756C22.996 80.756 27.288 80.411 32.156 80.066C30.393 81.101 28.668 81.945 27.097 82.366C26.369 82.596 25.678 82.711 25.066 82.749C24.414 82.864 23.839 82.903 23.417 82.826C22.459 82.788 21.922 82.749 21.922 82.749C21.922 82.749 22.421 82.941 23.302 83.324C23.762 83.554 24.299 83.707 24.989 83.822C25.641 84.014 26.407 84.129 27.288 84.167C29.358 84.358 31.887 83.975 34.456 83.4C32.693 84.972 30.93 86.428 29.55 87.693C27.825 89.188 26.56 90.261 26.292 90.529C26.637 90.414 28.208 89.954 30.431 89.264C32.922 88.459 36.525 87.463 39.974 86.198C41.085 85.7 42.235 85.202 43.347 84.741C40.855 86.964 38.211 88.765 36.256 90.337C34.34 91.793 32.999 92.867 32.692 93.096C33.075 93.019 34.723 92.598 37.061 91.985C39.667 91.218 43.423 90.529 46.949 89.149C48.751 88.536 50.552 87.922 52.238 87.31C52.736 87.118 53.235 86.965 53.695 86.811C53.733 86.811 53.772 86.849 53.81 86.849C52.353 87.807 50.859 88.765 49.326 89.609C44.689 92.101 39.476 93.519 35.452 93.671C33.459 93.787 31.734 93.671 30.584 93.48C29.664 93.326 29.051 93.25 28.821 93.25C29.051 93.365 29.587 93.595 30.431 93.978C31.542 94.476 33.229 95.051 35.299 95.473C39.477 96.431 45.456 96.469 51.282 95.128C55.383 94.093 59.484 92.636 62.933 91.18C63.355 91.372 63.815 91.525 64.237 91.717C64.237 91.717 64.198 91.717 64.198 91.755C62.818 92.522 61.285 93.097 59.714 93.671C53.505 96.01 46.53 96.661 41.393 97.006C36.18 97.313 32.731 97.389 32.731 97.389C32.731 97.389 36.104 98.041 41.316 98.807C46.491 99.535 53.62 100.417 61.094 99.344C62.933 99.075 64.812 98.807 66.651 98.194C68.529 97.772 70.177 97.121 71.748 96.431C71.787 96.431 71.787 96.393 71.825 96.393C72.745 96.01 73.626 95.626 74.508 95.282C74.661 95.321 74.815 95.359 74.968 95.397C74.278 95.895 73.588 96.355 72.86 96.777C71.139 97.919 69.415 98.966 67.745 99.917C67.487 100.063 67.238 100.196 66.983 100.337C65.403 101.213 63.862 102.016 62.474 102.641C60.481 103.637 58.756 104.174 57.568 104.672C56.687 105.055 56.073 105.285 55.805 105.4C56.074 105.362 56.725 105.285 57.683 105.17C58.948 104.94 60.826 104.863 63.011 104.365C67.035 103.675 72.209 102.18 77.46 100.225C75.927 101.605 74.394 102.832 72.9 103.674C72.057 104.288 71.175 104.632 70.408 104.939C69.642 105.323 68.952 105.552 68.339 105.667C67.15 105.935 66.461 106.127 66.461 106.127C66.461 106.127 67.151 106.127 68.416 106.166C69.03 106.205 69.796 106.127 70.677 105.974C71.558 105.859 72.594 105.706 73.628 105.361C77.078 104.441 81.102 102.218 85.012 99.573C83.363 101.605 81.716 103.598 80.182 105.476C78.457 107.431 76.618 109.078 75.123 110.573C72.516 113.142 70.639 114.943 70.178 115.441C70.715 115.173 72.976 113.87 76.234 112.03C78.073 110.919 80.335 109.769 82.596 108.274C84.321 107.009 86.16 105.668 88 104.327C87.172 106.181 86.442 108.163 85.76 110.205C85.587 110.723 85.415 111.24 85.253 111.77C84.623 113.819 84.059 115.944 83.593 118.183C83.513 118.569 83.455 118.978 83.379 119.37C82.978 121.455 82.658 123.626 82.41 125.878C82.36 126.344 82.295 126.795 82.252 127.267C82.01 129.851 81.88 132.552 81.855 135.358C81.853 135.535 81.831 135.691 81.83 135.87C81.826 136.174 81.866 136.506 81.865 136.812C81.876 139.127 81.964 141.517 82.133 143.984C82.136 144.014 82.134 144.042 82.137 144.071C82.137 144.876 82.214 145.681 82.29 146.486C82.444 147.061 82.558 147.636 82.673 148.211V148.249C82.75 148.594 82.75 148.939 82.827 149.284C82.673 150.089 82.558 150.894 82.406 151.698C81.792 154.381 80.757 156.949 79.531 159.057L79.147 158.789C78.994 158.943 78.649 160.054 77.882 161.625C77.154 162.66 76.272 163.273 75.774 163.886C75.276 164.384 74.969 164.691 74.854 164.844C75.046 164.767 75.429 164.614 76.043 164.308C76.196 164.231 76.388 164.155 76.579 164.078C76.349 164.423 76.119 164.768 75.889 165.151C74.739 165.994 73.628 166.761 72.593 167.45C69.258 169.635 66.997 171.091 66.997 171.091C66.997 171.091 69.143 170.401 72.477 169.366C72.247 169.596 72.056 169.826 71.864 170.056C69.45 172.433 66.575 174.464 64.198 175.728H64.159C63.921 175.875 63.72 175.96 63.5 176.076C62.644 176.504 61.855 176.808 61.284 177.108C60.556 177.415 60.135 177.606 60.135 177.606C60.135 177.606 60.595 177.606 61.4 177.568H62.243C62.243 177.568 62.246 177.568 62.247 177.568C62.949 177.576 63.761 177.588 64.734 177.453C65.845 177.338 67.148 177.146 68.528 176.878C67.953 177.491 67.302 178.105 66.65 178.718C64.734 180.175 62.702 181.861 61.016 182.666C60.403 183.011 59.828 183.356 59.406 183.586C59.373 183.606 59.36 183.611 59.329 183.63C58.624 184.029 58.18 184.275 58.18 184.275C58.18 184.275 59.483 184.352 61.438 184.429C62.243 184.544 63.163 184.506 64.121 184.468C63.967 184.545 63.852 184.66 63.699 184.775C62.818 185.197 61.859 185.694 60.863 186.346C59.905 186.921 58.908 187.688 57.95 188.493C57.298 188.876 56.723 189.22 56.187 189.45L55.842 190.485C54.155 192.248 52.661 194.242 51.511 196.465C50.4 198.688 49.786 200.796 49.212 202.712C48.561 204.36 48.101 206.123 47.143 207.158C46.261 208.269 45.15 208.921 44.307 209.151C43.617 209.343 43.118 209.304 42.965 209.304C43.118 209.381 43.578 209.573 44.383 209.65C44.811 209.692 45.37 209.627 45.977 209.489C46.17 209.447 46.37 209.358 46.575 209.295C46.879 209.199 47.17 209.142 47.487 208.999C47.755 208.884 48.061 208.73 48.33 208.577C49.02 208.193 49.595 207.657 50.17 207.044C49.786 207.619 49.442 208.193 49.058 208.769C48.196 209.981 47.342 211.179 46.525 212.322C45.918 213.168 45.318 214.001 44.766 214.748L44.744 214.814C44.004 215.849 43.336 216.781 42.798 217.529C42.617 217.781 42.458 218.002 42.308 218.212C41.726 219.023 41.354 219.539 41.354 219.539C41.354 219.539 43.922 218.121 47.333 216.205C47.295 216.243 47.295 216.282 47.256 216.32C45.685 218.505 43.04 220.881 40.089 223.028C37.061 225.059 33.65 226.592 30.929 227.436C30.584 227.589 30.201 227.666 29.894 227.781C28.974 228.011 28.169 228.126 27.594 228.279C26.751 228.471 26.292 228.586 26.292 228.586C26.292 228.586 26.752 228.663 27.594 228.778C28.055 228.855 28.667 228.97 29.357 229.085C29.894 229.162 30.468 229.238 31.12 229.238C33.305 229.392 36.064 229.354 38.977 228.97C37.559 230.35 36.563 231.347 36.563 231.347C36.563 231.347 39.437 231.117 42.81 230.887L41.392 235.256L40.281 235.179C34.915 234.758 30.047 238.399 28.898 243.65L27.25 251.2C26.177 256.068 29.435 260.821 34.379 261.549L34.571 261.588C40.358 262.469 46.108 259.901 49.366 255.034L61.593 236.713H61.477L77.69 212.337C85.279 211.417 92.063 210.229 98.273 208.773C97.238 210.038 96.624 211.341 96.088 212.145C95.628 212.874 95.322 213.334 95.245 213.526C95.437 213.372 95.82 212.989 96.472 212.452C97.353 211.762 98.312 210.536 99.959 209.578C100.879 208.926 101.952 208.275 103.064 207.623C104.367 207.278 105.632 206.895 106.897 206.512C105.901 207.853 104.981 209.041 104.099 210.037C102.298 212.107 101.148 213.487 101.148 213.487C101.148 213.487 102.758 212.682 105.211 211.456C107.779 210.267 110.845 208.237 114.141 206.205C115.291 205.4 116.441 204.557 117.552 203.714C116.862 204.786 116.287 205.784 115.904 206.55C115.214 207.777 114.831 208.466 114.831 208.466C114.831 208.466 115.367 207.891 116.287 206.856C117.207 205.783 118.51 204.326 120.312 202.831C121.577 201.681 123.11 200.454 124.758 199.229C127.966 197.51 130.982 195.639 133.696 193.615C133.326 194.387 132.945 195.17 132.479 195.96C131.218 197.793 129.94 199.846 128.687 201.059C127.468 202.393 126.66 203.276 126.66 203.276C126.66 203.276 127.837 203.014 129.614 202.619C129.997 202.554 130.407 202.449 130.822 202.337C130.396 203.244 129.968 204.096 129.509 204.785C128.92 205.982 128.145 206.692 127.676 207.319C127.175 207.921 126.889 208.265 126.889 208.265C126.828 208.2 128.564 207.647 130.83 206.031C131.876 205.347 132.944 204.412 134.038 203.411C133.709 205.605 133.207 207.608 132.811 209.234C132.33 211.128 132.011 212.384 132.011 212.384C132.011 212.384 132.873 211.575 134.173 210.358C133.825 211.755 133.453 213.055 133.008 214.113C132.212 216.335 131.685 217.809 131.685 217.809C131.685 217.809 132.823 216.724 134.54 215.087C135.648 214.129 136.803 212.822 138.012 211.385C138.067 211.463 138.122 211.542 138.18 211.62C137.929 214.505 136.885 217.036 135.889 219.166C134.748 221.589 133.848 223.163 133.848 223.163C133.848 223.163 135.278 222.088 137.338 220.26C138.407 219.38 139.527 218.187 140.767 216.847C141.025 216.495 141.299 216.122 141.565 215.761L141.863 216.118C141.653 218.436 141.438 220.677 141.019 222.406C140.554 224.811 140.246 226.404 140.246 226.404C140.246 226.404 141.215 225.102 142.677 223.137C142.558 224.86 142.417 226.495 142.166 227.816C141.828 230.065 141.604 231.555 141.604 231.555C141.604 231.555 141.96 231.07 142.517 230.311C142.313 231.022 142.118 231.701 141.942 232.324C141.233 234.932 140.763 236.66 140.763 236.66C140.763 236.66 141.875 235.265 143.553 233.161C144.591 231.881 145.871 230.337 147.214 228.652C147.17 229.49 147.095 230.296 146.948 231.007C146.825 232.121 146.345 232.884 146.163 233.535C145.924 234.164 145.788 234.522 145.788 234.522C145.788 234.522 146.069 234.272 146.562 233.833C147.008 233.359 147.914 232.782 148.579 231.802C149.174 231.08 149.762 230.154 150.329 229.149C150.855 233.98 151.362 238.626 151.362 238.626C151.362 238.626 152.668 236.122 154.32 232.955C154.441 236.617 154.435 240.525 154.435 240.525C154.435 240.525 156.259 238.565 158.493 235.997L158.832 236.402C158.839 236.608 158.86 236.803 158.86 237.011C158.584 239.428 158.502 242.192 157.705 243.989C157.066 245.939 156.643 247.232 156.643 247.232C156.643 247.232 157.677 246.328 159.238 244.962C160.454 244.063 161.568 242.658 162.737 241.07L163.21 241.635C166.597 248.674 173.714 259.668 185.286 260.018L196.453 260.495C205.778 260.495 205.779 253.186 203.072 248.761C199.378 242.723 186.257 242.085 183.719 237.027L165.362 201.27C168.539 193.574 170.968 186.515 172.776 179.929C172.903 179.916 173.023 179.901 173.243 179.874H173.281V179.797C173.511 179.49 174.316 176.999 175.236 173.895C176.194 176.693 177.229 179.338 177.344 181.293C177.574 183.209 176.846 184.512 176.693 184.781C176.808 184.704 177.076 184.512 177.497 184.167C177.996 183.669 178.685 182.826 179.146 181.599C179.989 179.529 180.295 176.962 180.641 174.316C181.331 176.156 182.097 178.149 182.327 179.682C182.71 181.292 182.94 182.404 182.94 182.404C182.94 182.404 183.4 181.369 184.167 179.874C184.512 179.222 184.819 178.417 185.125 177.575C185.24 177.881 185.394 178.226 185.509 178.571C185.892 179.912 186.122 181.139 186.275 182.25C186.467 184.396 185.624 185.853 185.7 185.892C185.7 185.815 187.08 184.895 188.077 182.558C188.46 181.485 188.805 180.219 189.073 178.878C189.993 180.871 190.721 182.365 190.721 182.365C190.721 182.365 191.334 180.87 192.177 178.916C192.445 179.644 192.675 180.334 192.675 180.947C192.982 182.978 193.173 184.32 193.173 184.32C193.173 184.32 193.71 183.016 194.515 181.1C194.554 181.023 194.554 180.909 194.592 180.832C194.784 182.634 194.822 184.396 194.63 185.815C194.592 186.85 194.285 187.617 194.208 188.23C194.055 188.843 193.978 189.188 193.978 189.188C193.978 189.188 194.208 188.919 194.629 188.46C195.013 188 195.741 187.387 196.315 186.506C197.312 185.203 198.347 183.363 199.19 181.332C199.305 181.639 199.42 181.983 199.458 182.251C199.88 183.976 199.688 185.241 199.727 185.241C199.727 185.203 200.57 184.245 201.26 182.405C202.026 180.527 202.448 177.921 202.64 175.238V174.969C202.794 175.429 202.985 175.889 203.1 176.387C204.365 180.335 205.284 184.244 204.748 187.157C204.518 188.614 203.982 189.763 203.445 190.491C203.062 190.99 202.794 191.334 202.679 191.526C203.139 191.295 204.979 190.376 206.435 187.769C207.24 186.389 207.777 184.665 208.16 182.825C209.425 186.274 210.498 189.073 210.498 189.073C210.498 189.073 211.303 185.623 212.261 181.56C212.951 183.4 213.411 185.24 213.564 186.811C213.794 188.152 213.525 189.225 213.525 190.03C213.487 190.835 213.448 191.295 213.448 191.295C213.448 191.295 213.678 190.874 214.023 190.184C214.291 189.456 215.058 188.421 215.365 187.041C215.94 185.202 216.284 182.863 216.361 180.295C216.629 181.905 216.821 183.4 216.783 184.703C216.821 186.964 216.859 188.498 216.859 188.498C216.859 188.498 217.549 187.118 218.546 185.048C219.619 183.132 220.386 180.41 221.306 177.535C221.344 177.65 221.383 177.765 221.459 177.88C222.203 180.042 223.027 182.212 223.652 184.226C223.575 184.338 223.502 184.446 223.426 184.558C220.681 187.847 217.981 191.08 217.981 191.08C217.981 191.08 220.628 190.583 223.864 189.976C223.55 190.316 223.233 190.655 222.889 190.98C221.179 192.58 219.132 193.911 217.396 194.627C216.541 195.056 215.773 195.168 215.232 195.363C214.681 195.522 214.366 195.613 214.366 195.613C214.366 195.613 214.676 195.703 215.219 195.862C215.767 195.984 216.583 196.329 217.588 196.433C219.101 196.698 221.087 196.771 223.213 196.561C222.229 197.856 221.494 198.705 221.494 198.705C221.494 198.705 222.105 198.606 223.097 198.392C222.156 199.509 221.162 200.498 220.344 201.332C219.128 202.503 218.322 203.28 218.322 203.28C218.322 203.28 219.425 203.163 221.09 202.987C221.924 202.876 222.947 202.788 224.038 202.628L223.969 202.945C223.69 203.098 223.41 203.248 223.134 203.351C221.74 203.855 220.539 203.815 220.545 203.867C220.559 203.803 221.389 204.556 223.133 205.167C223.233 205.2 223.363 205.213 223.468 205.242L223.08 207.02C214.434 202.043 210.393 201.002 204.83 204.062C198.97 207.285 196.463 215.835 202.353 220.067C208.243 224.3 213.563 225.649 222.144 226.324C237.466 227.286 240.709 219.661 241.96 215.544L255.796 184.979C255.82 185.044 255.855 185.097 255.878 185.162C256.99 188.842 258.37 192.636 258.638 195.587C259.137 198.576 259.443 200.57 259.443 200.57C259.443 200.57 259.826 198.615 260.439 195.625C261.167 192.98 261.32 189.492 261.55 185.813C261.742 186.273 261.934 186.771 262.125 187.27C263.39 191.179 263.697 195.587 263.16 198.883C263.083 200.57 262.508 201.834 262.317 202.831C262.125 203.559 262.01 204.058 261.972 204.249C262.126 204.057 262.394 203.636 262.777 203.061C263.237 202.179 264.272 201.068 264.923 199.419C265.497 198.308 265.996 196.928 266.418 195.433C266.686 198.499 266.648 201.412 266.341 203.788C266.226 205.551 265.689 206.931 265.536 207.966C265.383 208.732 265.23 209.268 265.191 209.461C265.344 209.269 265.613 208.809 265.996 208.158C266.456 207.238 267.414 206.012 268.104 204.287C269.599 201.106 270.902 196.545 271.63 191.754C272.09 194.552 272.473 197.158 272.511 199.343C272.665 201.298 272.434 202.907 272.243 204.057C272.089 205.207 272.013 205.858 272.013 205.858C272.013 205.858 272.281 205.245 272.741 204.172C273.239 203.099 273.891 201.565 274.313 199.534C274.773 197.809 275.079 195.701 275.386 193.478C275.463 193.862 275.539 194.206 275.654 194.551C276.305 196.046 276.881 197.732 277.647 199.073C279.104 201.91 280.598 204.477 281.672 206.892C282.707 209.345 283.282 211.798 283.397 213.906C283.55 216.053 282.937 217.778 282.516 219.004C281.864 220.115 281.481 220.767 281.481 220.767C281.481 220.767 282.017 220.192 282.938 219.272C283.666 218.161 284.816 216.436 285.199 214.059C285.659 211.836 285.659 209.115 285.237 206.24L286.809 208.424C286.809 208.961 286.809 209.535 286.771 210.072C286.541 213.79 285.851 217.623 284.433 220.114C283.935 221.494 283.091 222.337 282.593 223.065C282.095 223.794 281.789 224.176 281.789 224.176C281.789 224.176 282.211 223.908 282.939 223.448C283.629 222.95 284.893 222.376 285.89 221.187C287.079 220.229 288.19 218.849 289.224 217.316C289.033 219.041 288.534 220.727 287.959 222.184C287.231 224.138 286.464 225.748 285.928 226.86C285.545 227.665 285.238 228.24 285.123 228.47C285.315 228.278 285.736 227.819 286.35 227.129C287.155 226.171 288.305 224.828 289.57 223.028C290.527 221.686 291.562 220.077 292.329 218.084C292.176 221.533 291.486 224.944 290.681 227.474C290.336 228.892 289.761 229.927 289.493 230.732C289.186 231.537 288.995 231.959 288.995 231.959C288.995 231.959 289.34 231.614 289.915 231.001C290.451 230.387 291.41 229.544 292.292 228.356C293.365 227.015 294.515 225.328 295.664 223.412C295.664 223.604 295.703 223.834 295.703 224.063C295.511 226.171 295.473 228.624 294.822 230.234C294.362 231.729 294.017 232.802 293.94 233.07C294.055 232.993 294.323 232.763 294.707 232.495C294.247 233.53 293.787 234.449 293.365 235.139C292.598 236.174 292.138 236.749 292.138 236.749C292.138 236.749 292.713 236.289 293.748 235.484C294.667 234.526 296.085 233.145 297.12 231.038C297.274 230.808 297.35 230.54 297.465 230.31C298.117 229.696 298.73 229.006 299.344 228.278C299.765 229.427 300.148 230.616 300.57 231.804C300.608 231.843 300.608 231.919 300.608 231.958C300.034 234.909 298.769 237.669 297.313 239.623C296.2 240.926 295.281 242.115 294.438 242.728C293.671 243.418 293.211 243.801 293.211 243.801C293.211 243.801 293.748 243.571 294.706 243.15C295.74 242.767 297.005 241.923 298.577 240.889C299.689 240.084 300.877 238.934 301.988 237.631C302.257 239.433 302.295 241.081 302.065 242.538C301.797 243.956 301.452 245.221 300.992 245.987C300.532 246.792 300.302 247.252 300.302 247.252C300.302 247.137 301.644 246.294 303.062 244.263C302.908 244.876 302.832 245.259 302.832 245.259C302.832 245.259 303.062 244.914 303.483 244.339C303.905 243.764 304.633 242.959 305.246 241.886C305.821 240.928 306.435 239.778 307.009 238.552C307.546 239.894 308.005 241.312 308.351 242.73C309.155 246.103 309.155 249.667 308.581 252.35C308.427 253.73 307.814 254.689 307.585 255.493C307.316 256.26 307.125 256.72 307.125 256.72C307.125 256.72 307.47 256.375 308.006 255.762C308.504 255.11 309.54 254.344 310.267 253.04C310.689 252.389 311.148 251.661 311.532 250.856C312.337 249.284 313.065 247.368 313.602 245.337L313.794 245.567C313.794 245.567 320.233 265.996 333.15 265.996L347.944 266.61C357.488 266.61 357.488 259.136 354.728 254.575C350.933 248.404 337.749 247.753 335.143 242.579L309.156 176.962L310.69 173.398C310.805 175.391 311.188 177.192 311.762 178.649C312.031 179.454 312.414 180.106 312.759 180.681C313.065 181.294 313.41 181.753 313.717 182.099C314.33 182.827 314.675 183.21 314.675 183.21C314.675 183.21 314.483 182.712 314.177 181.869C313.985 181.447 313.87 180.911 313.755 180.297C313.64 179.684 313.525 179.032 313.563 178.266C313.525 177.768 313.525 177.193 313.602 176.657C313.832 174.472 314.637 172.019 315.94 169.796C317.013 169.183 318.086 168.569 319.121 167.88C319.159 168.148 319.159 168.455 319.198 168.685C319.275 169.873 319.696 170.831 319.926 171.444C320.194 172.058 320.309 172.402 320.309 172.402C320.309 172.402 320.347 172.019 320.424 171.368C320.501 170.716 320.539 169.834 320.999 168.838C321.459 167.573 322.263 166.193 323.336 164.967C324.984 163.741 326.594 162.437 328.166 161.058C327.629 162.285 327.169 163.472 326.824 164.584C326.134 166.922 326.019 168.915 326.019 170.295C326.134 171.637 326.211 172.403 326.211 172.403C326.211 172.403 326.326 171.637 326.518 170.334C326.825 169.03 327.399 167.229 328.511 165.313C330.006 162.63 332.498 159.871 335.18 156.651C335.448 156.498 335.678 156.344 335.717 156.344L335.602 156.191C336.369 155.233 337.135 154.236 337.94 153.163C337.863 153.623 337.748 154.083 337.671 154.505C337.173 157.035 336.483 159.104 336.1 160.561C335.717 162.056 335.487 162.899 335.487 162.899C335.487 162.899 335.87 162.132 336.56 160.753C337.211 159.411 338.361 157.495 339.396 155.081C339.96 153.835 340.546 152.459 341.137 150.994C341.145 150.975 341.152 150.96 341.16 150.941C341.646 149.737 342.132 148.449 342.614 147.121C342.78 146.664 342.938 146.197 343.102 145.728C343.44 144.763 343.768 143.781 344.091 142.771C344.271 142.213 344.446 141.663 344.62 141.093C345.075 139.596 345.514 138.077 345.913 136.529C346.296 134.957 346.641 133.348 346.986 131.737V134.765C347.101 137.333 346.679 139.748 346.564 141.817C346.158 145.329 345.829 147.8 345.771 148.524H345.759V148.639C345.827 148.47 345.974 148.1 346.16 147.635C346.623 146.515 347.378 144.626 348.327 142.238C348.979 140.245 350.052 137.946 350.627 135.301C350.972 133.999 351.355 132.618 351.7 131.2C351.93 129.782 352.083 128.287 352.275 126.754C352.39 125.949 352.39 125.144 352.429 124.301C352.697 126.064 352.927 127.788 353.042 129.283C353.273 131.506 353.311 133.346 353.388 134.649C353.464 135.914 353.503 136.68 353.503 136.68C353.503 136.68 353.656 135.952 353.886 134.687C354.116 133.383 354.576 131.583 354.844 129.359C355.027 128.34 355.19 127.219 355.33 126.034C355.383 125.592 355.414 125.116 355.458 124.655C355.536 123.845 355.607 123.033 355.654 122.171C355.683 121.651 355.693 121.118 355.709 120.581C355.735 119.741 355.748 118.898 355.739 118.025C355.733 117.373 355.709 116.72 355.682 116.054C355.665 115.669 355.673 115.299 355.649 114.909C355.61 114.105 355.534 113.261 355.457 112.418C355.073 109.697 354.576 107.09 354.115 104.637C356.146 96.512 358.331 90.111 363.122 85.971C366.84 80.989 374.582 88.769 384.279 91.758C387.077 92.601 390.028 93.062 393.094 92.678C394.424 92.886 395.742 92.873 397.041 92.752C397.261 92.731 397.477 92.726 397.695 92.697C398.218 92.626 398.727 92.515 399.236 92.393C399.45 92.343 399.661 92.294 399.873 92.236C400.344 92.104 400.804 91.953 401.259 91.778C401.485 91.692 401.699 91.597 401.921 91.5C403.069 91.001 404.167 90.398 405.173 89.644C405.272 89.569 405.358 89.48 405.456 89.403C405.478 89.386 405.498 89.366 405.519 89.349C405.73 89.181 405.93 89.004 406.133 88.824C406.842 88.2 407.501 87.518 408.097 86.768C408.162 86.687 408.246 86.628 408.309 86.545C408.349 86.492 408.389 86.433 408.428 86.379C408.499 86.284 408.567 86.188 408.636 86.091C408.757 85.925 408.878 85.768 408.999 85.587C409.306 85.088 409.613 84.59 409.881 84.053L419.463 65.656C420.613 63.357 419.885 60.597 417.738 59.217L399.877 47.642L397.999 46.415C394.703 44.269 392.94 42.735 392.173 38.903L391.368 35.416C389.145 21.043 345.566 7.819 332.152 22.959C326.288 29.513 321.459 34.879 317.319 39.478C315.096 41.663 312.298 44.308 309.309 46.799C306.128 49.52 302.793 51.743 299.919 52.817C298.501 53.353 297.236 53.66 296.355 53.775C295.435 53.89 294.898 53.967 294.898 53.967C294.898 53.967 295.434 54.082 296.316 54.274C296.585 54.313 296.891 54.351 297.198 54.389C295.588 55.347 294.17 56.497 293.02 57.225C291.486 58.374 290.451 59.103 290.451 59.103C290.451 59.103 291.755 59.064 293.671 58.949C292.598 59.371 291.601 59.754 290.681 60.137C287.232 61.479 284.779 62.437 284.166 62.705C284.434 62.705 285.085 62.628 286.082 62.513C286.082 62.513 286.043 62.513 286.005 62.552C282.441 64.162 278.8 65.388 276.078 66.423C275.26 66.723 274.562 66.977 273.935 67.206C273.61 67.322 273.272 67.443 273.012 67.534H272.973C272.092 67.88 271.555 68.071 271.555 68.071C271.555 68.071 271.746 68.071 272.13 68.11C272.44 68.11 272.879 68.112 273.396 68.118C273.835 68.128 274.326 68.139 274.89 68.149C272.775 68.428 270.735 68.627 268.645 68.881C263.86 69.468 259.121 70.004 254.443 70.461C252.375 70.662 250.333 70.823 248.281 71.001C244.431 71.336 240.591 71.654 236.781 71.909C234.619 72.054 232.465 72.168 230.31 72.289C226.531 72.501 222.754 72.694 218.981 72.836C216.972 72.912 214.96 72.97 212.948 73.026C208.975 73.138 204.995 73.226 200.993 73.271C198.766 73.297 196.531 73.315 194.29 73.32C191.681 73.33 189.063 73.332 186.427 73.316C182.737 73.29 179.013 73.238 175.256 73.167C173.693 73.138 172.145 73.118 170.568 73.081C165.726 72.966 160.808 72.817 155.812 72.639C155.016 72.611 154.245 72.592 153.445 72.562C147.478 72.341 141.397 72.083 135.147 71.789C88.157 73.323 62.248 54.274 40.132 30.817C37.718 27.79 33.195 22.078 28.711 16.367C25.53 12.419 22.693 8.472 20.739 5.329C19.129 2.531 18.094 0.460999 17.826 0.0019989C17.903 0.499999 18.286 2.761 19.053 6.019C19.59 7.974 20.318 10.273 21.161 12.688C20.318 11.73 19.59 10.81 19.053 9.928C17.788 8.126 16.945 6.938 16.945 6.938C16.945 6.938 17.098 8.395 17.367 10.579C17.405 11.307 17.521 12.074 17.674 12.918C16.14 12.304 14.952 11.845 14.416 11.653H14.378C14.186 11.576 14.109 11.538 14.109 11.538C14.109 11.538 14.339 12.151 14.645 13.109C14.645 13.109 14.684 13.109 14.684 13.148C14.99 14.835 15.297 16.521 15.603 18.246C14.722 17.441 13.955 16.636 13.381 15.87C12.653 15.065 12.231 14.26 11.847 13.723C11.502 13.148 11.311 12.842 11.311 12.842C11.311 12.842 11.349 13.226 11.388 13.877C11.465 14.49 11.465 15.487 11.695 16.598C12.117 18.898 13.075 21.964 14.761 24.915C15.068 25.413 15.374 25.911 15.719 26.41C11.005 25.337 7.057 24.456 7.057 24.456C7.057 24.456 7.517 24.839 8.206 25.452C4.22 24.609 1.23 23.957 1.23 23.957C1.23 23.957 3.952 25.911 7.516 28.48C8.014 29.054 8.627 29.745 9.279 30.511C8.36 30.357 7.44 30.281 6.635 30.281C5.178 30.204 3.952 30.319 3.147 30.473C2.342 30.626 1.882 30.703 1.882 30.703C1.882 30.703 3.76 30.895 6.252 32.044C7.21 32.466 8.245 33.041 9.318 33.731C7.631 33.846 6.443 33.961 6.443 33.961C6.443 33.961 7.938 35.571 9.701 37.487C8.283 37.104 6.98 36.606 5.907 35.992C4.872 35.532 4.259 34.804 3.684 34.42C3.301 34.114 2.995 33.884 2.88 33.769C2.918 33.885 3.033 34.229 3.263 34.727C3.609 35.302 3.915 36.375 4.682 37.334C5.87 39.174 8.055 41.32 10.853 42.968C7.212 44.463 3.916 45.843 3.916 45.843C3.916 45.843 5.181 46.226 6.982 46.801C6.714 46.878 6.445 46.954 6.178 47.031C5.717 46.801 5.411 46.685 5.296 46.647C5.335 46.724 5.488 46.916 5.717 47.184C4.261 47.644 3.303 47.951 3.303 47.951C3.303 47.951 4.837 48.296 7.06 48.832C7.29 49.101 7.558 49.407 7.903 49.675C8.171 49.905 8.477 50.135 8.784 50.327C7.021 50.825 5.871 51.132 5.871 51.132C5.871 51.132 7.289 51.439 9.435 51.975C8.132 52.971 7.135 53.7 7.135 53.7C7.135 53.7 8.208 54.199 9.703 54.812C7.787 54.812 5.947 54.658 4.414 54.352C3.034 54.199 1.961 53.815 1.194 53.662C0.581 53.509 0.198 53.432 0.006 53.393L0 53.39ZM172.787 179.883C172.839 179.693 172.896 179.5 172.947 179.31C173.032 179.491 173.125 179.69 173.165 179.757C172.989 179.807 172.897 179.843 172.787 179.883Z" fill="#FAC10E"/>
</svg>
