<svg width="50" height="55" viewBox="0 0 50 55" fill="none" xmlns="http://www.w3.org/2000/svg">
<path d="M48.0719 10.6013L46.8422 8.38892C46.8422 8.38892 47.0766 6.36728 45.5499 4.84671L45.2561 0.546825L43.8513 3.6469L42.9138 0.546825L41.5669 3.45792C41.5669 3.45792 34.3025 8.55883 31.2008 13.6979C30.6646 13.4898 30.1413 13.235 29.9486 12.968C29.6693 12.5778 29.5473 11.4838 29.703 11.0226C29.9502 10.2823 29.7062 7.17004 29.7062 7.17004C31.3582 7.13016 32.0276 5.1484 32.0276 5.1484L32.9652 5.6356C33.4002 4.89179 33.0214 3.08341 32.7725 2.48871C31.363 -0.919992 28.1249 1.08778 28.1249 1.08778C26.0395 2.66903 27.6979 3.82202 27.6979 3.82202C26.77 3.79255 24.0006 4.39418 22.8175 4.86058C20.5635 5.73963 16.5356 10.2042 16.5356 10.2042C14.4871 12.375 15.6012 14.3585 15.6012 14.3585C16.07 15.508 19.4269 17.6736 20.9151 18.5873C20.8461 18.5803 20.7834 18.5803 20.7144 18.5699C20.7144 18.5699 16.3798 16.6714 12.3969 18.8231C12.3969 18.8231 6.65597 16.7997 4.78248 25.6526C4.78248 25.6526 4.43089 32.8653 0.916687 34.131C0.916687 34.131 6.30439 36.0278 8.76546 26.1606C8.76546 26.1606 8.29668 24.0714 9.8202 23.0588C9.8202 23.0588 8.29668 26.0965 10.289 30.3964C10.289 30.3964 11.0499 33.115 7.88731 34.6338C7.88731 34.6338 5.13566 35.5198 5.77943 39.5683C5.77943 39.5683 4.95907 46.5903 6.2482 48.0484C6.2482 48.0484 6.48259 48.553 5.83883 49.5655C5.83883 49.5655 3.96533 52.2824 7.59673 52.2824C7.59673 52.2824 11.1334 52.057 8.88586 49.5014C7.3479 47.7537 6.83577 47.9201 7.71393 39.9515C7.71393 39.9515 8.76867 37.3577 9.64682 37.1687C9.64682 37.1687 14.0986 36.1579 15.0939 33.2468C15.0939 33.2468 16.9096 32.926 16.1487 36.2203C16.1487 36.2203 13.0438 39.4435 15.2111 41.0923C15.2111 41.0923 19.0769 45.0177 20.0145 45.3281C20.0145 45.3281 19.8395 46.2782 20.4832 46.9076C20.4832 46.9076 19.4285 47.4156 19.6051 48.2392C19.6051 48.2392 18.7269 49.9452 22.0068 49.9452C22.0068 49.9452 25.1116 50.0701 22.5927 47.5404C22.5927 47.5404 22.2989 44.3779 20.366 43.8734C20.366 43.8734 16.7346 40.3312 18.6097 38.1812C18.6097 38.1812 21.5958 35.2077 22.0645 32.6746C22.0645 32.6746 27.9836 34.0079 32.0212 32.4874C32.0212 32.4874 31.2586 36.2203 32.6072 38.7499C32.6072 38.7499 32.3728 43.9982 33.3103 45.0732L33.4275 49.6297C33.4275 49.6297 32.5494 51.2699 33.1931 52.4107C33.1931 52.4107 32.3696 54.4359 33.6603 54.5H36.5885C36.5885 54.5 37.5823 53.9313 36.6463 53.3609C36.6463 53.3609 37.9965 53.7406 37.8777 52.7298C37.8777 52.7298 37.2917 50.325 36.1182 49.5049C36.1182 49.5049 35.6494 45.4581 36.0026 43.3082C36.0026 43.3082 37.4073 37.4894 37.9933 34.3235C37.9933 34.3235 40.9199 30.0253 40.5683 27.0501C40.5458 26.8576 40.5266 26.6912 40.5073 26.5438C40.4929 26.445 40.4832 26.3635 40.4736 26.2855L40.9167 15.9831C40.9167 15.9831 40.9167 12.1877 43.3762 12.3143C43.3762 12.3143 44.2543 13.769 45.5434 14.4018C45.5434 14.4018 47.0076 16.6766 49.0576 14.655C49.0673 14.6515 49.3001 13.0702 48.0719 10.6013ZM27.2484 10.6446C27.2484 10.6446 27.5373 12.8483 27.9547 13.1673C27.9547 13.1673 26.7555 13.0893 26.5596 12.6975C26.4023 12.3871 26.3413 10.9446 26.3413 10.9446L27.2484 10.6446ZM24.2334 12.1652L24.8017 14.5839C25.7232 16.3593 29.5489 15.638 29.9551 15.5583C29.3273 16.2345 28.2806 17.143 26.7491 17.8105C25.6847 16.2189 23.405 14.3117 23.405 14.3117C21.8655 12.7339 24.2334 12.1652 24.2334 12.1652Z" fill="#FCFAEB"/>
</svg>
