<svg width="49" height="41" viewBox="0 0 49 41" fill="none" xmlns="http://www.w3.org/2000/svg">
<path d="M44.7848 0.635075C44.7427 0.684856 44.6164 0.868671 44.5053 1.04865C44.1837 1.56563 43.8775 1.92942 43.7626 1.92942C43.7167 1.92942 43.7435 1.70732 43.8354 1.31672C43.9311 0.903137 43.954 0.646564 43.8966 0.612099C43.8468 0.577633 43.6707 0.726982 43.0543 1.32437C42.6064 1.7571 42.4418 1.89113 42.3499 1.90645C42.281 1.91793 41.9249 1.94474 41.5574 1.96772C39.5092 2.09409 38.3951 2.42342 36.8292 3.36546C35.8261 3.96668 35.2519 4.41473 34.5091 5.17295C33.8851 5.80864 33.5635 6.19541 32.2848 7.8459C30.6959 9.89082 30.5198 10.0555 29.3828 10.5686C28.1959 11.1009 26.8406 11.4073 24.846 11.5873C23.9999 11.6638 21.6109 11.6524 20.9218 11.5681C19.7273 11.4188 18.9348 11.2656 16.8444 10.7716C14.689 10.2623 13.9692 10.1742 12.346 10.2125C10.8299 10.2508 10.0565 10.3618 8.66294 10.7371C7.93169 10.9363 7.61776 10.9937 6.96691 11.0435C4.81147 11.2043 4.42096 11.2541 3.80074 11.4494C3.40641 11.5719 2.8015 11.8706 2.47225 12.1042C1.07485 13.0884 0.355093 14.984 0.0488134 18.4534C-0.0162711 19.2117 -0.0162711 26.8552 0.0488134 28.0462C0.125383 29.4094 0.20961 29.9609 0.401035 30.4166L0.512062 30.6693L0.554175 30.5544C0.61926 30.3821 0.657545 30.1485 0.714972 29.5588L0.764743 29.0227L0.787714 30.2289C0.810685 31.3586 0.856627 31.8871 0.937025 31.9675C0.986796 32.0173 1.04039 31.8603 1.18971 31.2054C1.38879 30.3247 1.38879 30.3285 1.38496 31.1672C1.38113 32.159 1.46153 32.5458 1.68358 32.6491C1.79844 32.7028 2.00518 32.5917 2.07792 32.4385C2.10472 32.3811 2.16214 32.0479 2.20426 31.6918C2.24637 31.3395 2.29614 30.9987 2.31528 30.9374C2.37654 30.7115 2.35357 31.462 2.28083 31.933C2.24254 32.1858 2.21574 32.3964 2.21957 32.4002C2.21957 32.4079 2.29231 32.3236 2.37271 32.2164C2.45311 32.1092 2.58328 31.979 2.65985 31.933C2.75556 31.8718 2.8283 31.7837 2.8819 31.6573C2.96613 31.4582 3.20732 30.5391 3.67057 28.6397C3.82754 27.9849 4.00365 27.2918 4.05342 27.0965C4.21039 26.5106 4.22953 26.0778 4.36353 19.6214C4.44776 15.6388 4.47073 15.4435 4.94546 14.2449C5.42403 13.031 5.76859 12.5446 5.9983 12.7552C6.12847 12.8739 6.0787 13.1573 5.8643 13.4981C5.61928 13.8964 5.25174 14.6738 5.11009 15.0989C4.94546 15.5928 4.89569 16.2132 4.95312 17.1667C5.02203 18.3922 5.17134 19.0585 5.8375 21.0957C6.47303 23.0488 6.58023 23.5159 6.55343 24.2167C6.51515 25.2392 6.08636 26.1583 5.11392 27.3186C4.32525 28.2568 4.2793 28.341 4.22953 28.9729C4.18359 29.5626 4.12616 31.1633 4.07639 33.2006L4.03811 34.7707L3.83137 35.6706C3.44852 37.3172 3.39109 37.7155 3.49829 37.9184C3.55189 38.018 3.82371 38.152 4.16828 38.2516C4.48221 38.3435 4.50519 38.3895 4.48987 38.983C4.47456 39.5689 4.50901 39.6647 4.84209 39.994C5.24409 40.3961 5.71882 40.5531 6.43092 40.5186C7.18513 40.4842 7.47993 40.3578 7.43016 40.0897C7.33827 39.6072 6.48452 38.4622 5.79156 37.8993C5.43934 37.6083 5.37808 37.4819 5.33214 36.9534C5.2862 36.4671 5.31683 34.3839 5.37808 33.6678C5.55802 31.5884 6.82908 29.1146 8.66676 27.2764C9.31761 26.6254 9.64303 26.3765 9.70812 26.4799C9.75406 26.5489 9.72726 26.7097 9.54349 27.4526C9.34441 28.2606 9.31378 28.7201 9.43629 29.1261C9.48223 29.2792 9.73109 29.846 9.99142 30.3821C10.2518 30.9182 10.4815 31.4276 10.5044 31.5118C10.558 31.7224 10.5925 31.9598 10.8107 33.5644C11.0328 35.1881 11.1629 35.9846 11.2931 36.5399C11.4386 37.1449 11.519 37.2674 11.9286 37.5087C12.3498 37.7538 12.3651 37.7768 12.8169 38.9754C12.8666 39.1094 12.9662 39.2741 13.0542 39.366C13.2456 39.5651 13.4141 39.6072 14.1836 39.6379C14.823 39.6647 14.9225 39.6379 15.1599 39.3736C15.2633 39.2587 15.2901 39.2051 15.2709 39.14C15.1944 38.8873 14.5971 38.2018 13.862 37.524C13.617 37.2981 13.3873 37.0607 13.3528 36.9956C13.3184 36.9305 13.1844 36.6011 13.0542 36.2603C12.9241 35.9233 12.6905 35.3412 12.5412 34.9698C12.1277 33.9397 12.0014 33.438 11.944 32.5649C11.875 31.6075 12.2005 29.172 12.6178 27.4909C13.0504 25.7485 13.6898 24.0444 14.4708 22.5318C14.6737 22.1373 15.0642 21.7008 15.3398 21.5553C15.4662 21.4902 15.5045 21.4863 15.6997 21.5285C16.0902 21.6089 16.5535 21.808 17.4302 22.2637C19.2104 23.1943 20.2212 23.5581 21.6492 23.7917C22.8475 23.987 23.8429 24.0559 27.9662 24.2359C29.333 24.2971 30.4548 24.3661 30.4969 24.3929C30.6462 24.4848 30.7036 27.6479 30.5926 29.5971C30.4586 31.8909 30.3016 33.7559 30.0681 35.8008C29.9838 36.536 29.9073 37.3555 29.892 37.6236C29.8652 38.221 29.8958 38.3473 30.1217 38.4699C30.3782 38.6154 30.4662 38.8413 30.6041 39.7527C30.6577 40.1012 30.7113 40.2199 30.8338 40.2544C30.8874 40.2697 31.2358 40.2812 31.6033 40.2774C32.3307 40.2735 32.6293 40.2238 33.016 40.0476L33.2228 39.9557L33.1309 39.8485C33.0811 39.791 32.9165 39.6149 32.7672 39.4579C31.7488 38.3895 31.5688 38.0333 31.4846 36.9611C31.4272 36.2373 31.4616 34.8243 31.5459 34.3609C31.6837 33.5797 32.1546 32.1092 32.2388 32.1896C32.2695 32.2241 32.3652 33.0474 32.4035 33.6371C32.4264 33.9626 32.4685 34.8089 32.503 35.5136C32.637 38.5082 32.6753 38.7801 32.9356 38.9103C33.1692 39.0252 33.2572 39.2205 33.4295 40.0285C33.4793 40.2697 33.5405 40.4957 33.5673 40.5263C33.6745 40.6565 33.9425 40.7293 34.3943 40.7484C35.3667 40.7944 36.0826 40.6029 36.0826 40.3004C36.0826 40.0821 35.7725 39.7681 34.9303 39.1324C34.1761 38.558 34.0344 38.3741 33.8085 37.6619C33.6362 37.1104 33.5788 36.6777 33.5788 35.8391C33.575 34.7898 33.6822 34.0852 34.0038 33.0053C34.3177 31.9598 34.5436 30.8799 34.6278 30.0336C34.6814 29.5205 34.712 29.4094 35.3093 27.5062C35.8338 25.8366 35.9754 25.3617 36.232 24.3546L36.3889 23.7495L36.7794 23.3398C37.3767 22.7156 37.5949 22.3901 37.7595 21.8884C37.9701 21.2489 38.1079 20.3375 38.2649 18.53C38.4869 15.9298 38.4755 16.0026 38.8162 15.2176C39.1416 14.4747 39.268 14.0917 39.4134 13.3986C39.7235 11.9204 40.4165 9.53468 40.7036 8.96409C40.7917 8.78794 40.8415 8.74965 40.8874 8.81857C40.9142 8.86453 41.6684 9.1594 42.6102 9.49256C43.8736 9.9406 44.1914 10.1206 44.8269 10.7333C45.3246 11.2196 45.5467 11.5222 45.696 11.9242C45.7611 12.1042 45.8606 12.3302 45.9142 12.4336C46.0329 12.6518 46.3468 12.9582 46.4579 12.9582C46.5 12.9582 46.634 12.9084 46.7488 12.8433C46.9518 12.7361 46.9785 12.7323 47.2963 12.7514C47.7596 12.782 47.8936 12.7093 48.1807 12.2574C48.2956 12.0774 48.4946 11.7749 48.621 11.5873C48.7511 11.3996 48.8851 11.1507 48.9273 11.032L49 10.8137L48.9119 10.6337C48.8622 10.5303 48.5865 10.044 48.2956 9.55C47.0322 7.39403 46.5995 6.47879 46.2435 5.21125C45.9908 4.30367 45.8759 4.12369 45.16 3.48034C44.6661 3.0323 44.5053 2.84083 44.5053 2.69914C44.5053 2.64936 44.5589 2.50384 44.6202 2.37364C44.8346 1.93708 45.026 0.945259 44.9494 0.650394C44.9188 0.527851 44.8882 0.524021 44.7848 0.635075Z" fill="#FCFAEB"/>
</svg>
