<svg width="51" height="42" viewBox="0 0 51 42" fill="none" xmlns="http://www.w3.org/2000/svg">
<path d="M8.30078 30.8594C5.46875 30.8594 3.125 33.2031 3.125 36.0352C3.125 38.8672 5.46875 41.2109 8.30078 41.2109C11.1328 41.2109 13.4766 38.8672 13.4766 36.0352C13.4766 33.2031 11.1328 30.8594 8.30078 30.8594ZM8.30078 38.2812C7.03125 38.2812 6.05469 37.3047 6.05469 36.0352C6.05469 34.8633 7.03125 33.8867 8.30078 33.8867C9.47266 33.8867 10.4492 34.8633 10.4492 36.0352C10.4492 37.3047 9.47266 38.2812 8.30078 38.2812ZM33.3008 30.8594C30.4688 30.8594 28.125 33.2031 28.125 36.0352C28.125 38.8672 30.4688 41.2109 33.3008 41.2109C36.1328 41.2109 38.4766 38.8672 38.4766 36.0352C38.4766 33.2031 36.1328 30.8594 33.3008 30.8594ZM33.3008 38.2812C32.0312 38.2812 31.0547 37.3047 31.0547 36.0352C31.0547 34.8633 32.0312 33.8867 33.3008 33.8867C34.4727 33.8867 35.4492 34.8633 35.4492 36.0352C35.4492 37.3047 34.4727 38.2812 33.3008 38.2812ZM39.5508 0L38.6719 5.85938H0L3.22266 29.4922H38.2812L41.3086 7.61719L42.0898 2.92969H50.1953V0H39.5508ZM38.1836 8.88672L37.793 11.8164H3.80859L3.32031 8.88672H38.1836ZM5.85938 26.5625L4.19922 14.7461H37.4023L35.7422 26.5625H5.85938Z" fill="#EAB464"/>
</svg>
