<svg width="47" height="39" viewBox="0 0 47 39" fill="none" xmlns="http://www.w3.org/2000/svg">
<path fill-rule="evenodd" clip-rule="evenodd" d="M0.968445 12.6222V16.0886L6.16803 14.3554V38.6202H40.8319V14.3554L46.0315 16.0886V12.6222L23.5 0.489868L0.968445 12.6222Z" fill="#FCFAEB"/>
<path fill-rule="evenodd" clip-rule="evenodd" d="M21.7668 5.68945H25.2332L37.3655 12.6222V35.1538H28.6995V17.8218H18.3004V35.1538H9.6344V12.6222L21.7668 5.68945Z" fill="#EAB464"/>
<path d="M37.2038 14.648H9.78754V35.0187H37.2038V14.648Z" fill="#EAB464" stroke="#EAB464" stroke-width="0.840253"/>
<path d="M12.7099 29.3833C12.7949 29.5957 12.8745 29.8027 12.9701 29.9938C13.416 30.8273 14.2972 31.2148 15.1784 31.3793V29.8664H14.5361C14.414 29.5532 14.1645 29.3197 13.8407 29.2188C13.7398 29.1657 13.6761 29.0808 13.6549 28.9693C13.6443 28.9693 13.6443 28.9693 13.6443 28.9693C13.5593 28.2739 13.4426 27.5413 13.2992 26.7981C13.2302 26.6123 13.2939 26.4424 13.4956 26.3787C13.9309 26.3256 14.3503 26.2407 14.7697 26.1292C15.6721 26.0868 16.5799 25.885 17.3603 25.4126C18.0557 25.7895 18.3105 26.5221 18.6874 27.1644V27.1538C19.5792 28.5446 20.3012 30.031 20.8586 31.5705C20.8957 31.666 20.9116 31.7669 20.9116 31.8677C20.9116 32.027 20.8639 32.1756 20.7895 32.303C20.3649 32.7383 20.0888 33.2745 19.8712 33.8319L21.5487 33.8478C21.5593 33.4443 21.5964 33.0568 21.8353 32.7171C22.0477 32.5313 22.2122 32.372 22.2441 32.0748C22.1963 31.6978 21.9574 31.3634 21.7982 31.0237C21.6018 30.6043 21.485 30.1584 21.4266 29.7072C21.3629 29.3196 21.2567 28.9374 21.1505 28.5552C20.8373 27.5094 20.6834 26.4265 20.471 25.3542C22.3609 25.6568 24.2772 25.5134 26.1405 25.1312C26.3476 26.2301 26.6608 27.2918 27.0589 28.3322C27.2076 28.8737 26.7882 29.4258 26.5227 29.8611C25.9335 30.7317 25.2699 31.5386 24.7019 32.4251C24.3569 32.8498 24.0702 33.3276 23.8473 33.8372L25.6203 33.8638L25.6734 33.2161C25.6787 33.1206 25.6787 33.025 25.7636 32.9772C26.0184 32.8976 26.1458 32.6747 26.2361 32.4411C26.4325 31.9686 26.682 31.5121 26.9793 31.0768C27.5261 30.323 28.1843 29.6647 28.9381 29.1179C28.9381 29.1179 28.9381 29.1179 28.9487 29.1073C29.1452 28.9799 29.1823 28.7729 29.1823 28.5605C29.108 28.1624 29.0284 27.7643 28.9594 27.3608C28.8957 26.5805 29.246 25.832 29.8884 25.3754C30.2334 25.901 30.674 26.3416 31.1624 26.7397C31.7516 27.1538 32.309 27.6156 32.824 28.1199C32.9514 28.2474 33.0735 28.3694 33.1849 28.4915C33.4557 28.8419 33.6415 29.2507 33.7954 29.6594C34.1033 30.4451 34.3263 31.2042 34.4802 31.9314C34.5333 32.1703 34.4749 32.4092 34.3581 32.6163C34.0821 32.9772 33.8591 33.3754 33.6999 33.816L35.3508 33.8319L35.3614 33.0888C35.3508 33.0198 35.3774 32.9826 35.4145 32.9295H35.4251C35.7118 32.7862 35.818 32.5314 35.7755 32.2235C35.2659 30.9919 35.0748 29.9514 34.7722 28.8473C34.6501 28.4597 34.6235 28.0404 34.6713 27.6316C34.7031 27.4352 34.6395 27.2547 34.5227 27.0955C34.3263 26.8566 34.1245 26.5964 33.9175 26.3363C33.4875 25.8002 33.2911 25.1313 33.1637 24.473C32.9514 23.4591 33.1425 22.3921 33.0363 21.3357C32.8823 20.4916 32.4046 19.7485 31.8684 19.1008C34.2944 19.4087 34.0449 23.1406 34.0661 25.0411C34.0661 25.1632 34.0661 25.2799 34.0661 25.4126L36.2745 25.3861C36.1789 22.0152 35.7383 18.0763 31.4384 18.5806C30.4086 18.2408 29.384 17.8852 28.2905 17.8586C25.7424 17.8799 23.7782 18.6018 21.2461 18.3417C17.7053 17.8851 17.3071 13.6171 13.4478 13.5428C12.9648 13.5428 12.4711 13.6171 12.0092 13.7551C11.2767 13.5906 10.5228 13.5481 9.77435 13.6065C10.1725 13.9197 10.5441 14.2276 10.9157 14.5461C11.0696 15.5282 10.9529 16.5209 10.99 17.5082C10.9794 17.8268 11.0643 19.3025 11.1386 19.9608C11.0962 20.5341 11.7173 20.8261 12.3065 20.7677C12.6038 20.7358 12.625 20.5235 13.0444 20.4704C13.3151 20.3005 13.2143 19.9714 13.2408 19.7007C13.2886 19.0424 13.6071 18.4479 13.7504 17.8055C13.984 17.7153 14.1964 17.6091 14.3981 17.4976C14.8546 18.2143 15.0935 19.0371 15.1041 19.8758C15.1201 20.619 15.1307 21.3622 15.1307 22.1054C15.1307 22.0523 15.1307 22.0895 15.1413 22.116C15.1784 22.684 15.3377 23.2308 15.6031 23.7192C14.6263 23.8838 13.692 24.181 12.8002 24.611C12.4392 24.8128 11.988 24.9932 11.7491 25.3542C11.7385 25.3542 11.7385 25.3542 11.7385 25.3649C11.6111 25.5666 11.6005 25.8001 11.6483 26.0231C11.919 27.2706 12.2534 28.4119 12.7099 29.3833Z" fill="#FCFAEB"/>
</svg>
